<svg width="28" height="28" viewBox="0 0 28 28" fill="none" xmlns="http://www.w3.org/2000/svg">
<path d="M8.75016 4.08334C5.21659 4.08334 2.3335 6.96644 2.3335 10.5C2.3335 12.8894 4.13462 15.1392 6.33024 17.4465C8.52586 19.7537 11.2284 22.0905 13.3815 24.2437C13.5456 24.4077 13.7681 24.4998 14.0002 24.4998C14.2322 24.4998 14.4547 24.4077 14.6188 24.2437C16.7719 22.0905 19.4745 19.7537 21.6701 17.4465C23.8657 15.1392 25.6668 12.8894 25.6668 10.5C25.6668 6.96644 22.7837 4.08334 19.2502 4.08334C17.2222 4.08334 15.4566 5.17213 14.0002 7.02166C12.5437 5.17213 10.7781 4.08334 8.75016 4.08334ZM8.75016 5.83334C10.4585 5.83334 11.8805 6.74241 13.2607 8.92547C13.3397 9.05016 13.4488 9.15287 13.5781 9.22405C13.7074 9.29522 13.8526 9.33254 14.0002 9.33254C14.1477 9.33254 14.2929 9.29522 14.4222 9.22405C14.5515 9.15287 14.6607 9.05016 14.7396 8.92547C16.1198 6.74241 17.5418 5.83334 19.2502 5.83334C21.8381 5.83334 23.9168 7.91209 23.9168 10.5C23.9168 11.9023 22.5096 14.0275 20.4032 16.2411C18.4823 18.2596 16.0945 20.3685 14.0002 22.4105C11.9058 20.3685 9.51807 18.2596 7.59717 16.2411C5.4907 14.0275 4.0835 11.9023 4.0835 10.5C4.0835 7.91209 6.16224 5.83334 8.75016 5.83334Z" fill="black"/>
</svg>
