<svg width="800" height="600" xmlns="http://www.w3.org/2000/svg">

 <g>
  <title>background</title>
  <rect fill="#fff" id="canvas_background" height="602" width="802" y="-1" x="-1"/>
  <g display="none" overflow="visible" y="0" x="0" height="100%" width="100%" id="canvasGrid">
   <rect fill="url(#gridpattern)" stroke-width="0" y="0" x="0" height="100%" width="100%"/>
  </g>
 </g>
 <g>
  <title>Layer 1</title>
  <g id="svg_5">
   <path stroke="#ff0000" id="svg_4" fill="#ff0000" d="m362.22496,227.08274c-25.0882,0 -45.55802,20.45236 -45.55802,45.51902c0,16.95012 12.78788,32.90993 28.37669,49.27764c15.58881,16.367 34.77673,32.94398 50.06365,48.21852c1.1651,1.1634 2.74484,1.81674 4.39274,1.81674c1.64719,0 3.22693,-0.65335 4.39203,-1.81674c15.28692,-15.27454 34.47527,-31.85152 50.06393,-48.21852c15.58867,-16.36771 28.3764,-32.32752 28.3764,-49.27764c0,-25.06665 -20.46989,-45.51902 -45.55759,-45.51902c-14.39871,0 -26.9344,7.72375 -37.27478,20.84409c-10.34109,-13.12034 -22.87677,-20.84409 -37.27506,-20.84409zm0,12.41429c12.12914,0 22.22528,6.44883 32.02464,21.9352c0.5609,0.88454 1.3355,1.61315 2.25353,2.11809c0.91802,0.50487 1.94894,0.76962 2.99689,0.76962c1.04724,0 2.07816,-0.26474 2.99618,-0.76962c0.91802,-0.50494 1.69334,-1.23355 2.25353,-2.11809c9.79936,-15.48637 19.8955,-21.9352 32.02507,-21.9352c18.37398,0 33.13266,14.7464 33.13266,33.10473c0,9.94775 -9.99106,25.02366 -24.94641,40.72667c-13.63831,14.319 -30.59159,29.27928 -45.46103,43.76498c-14.87015,-14.4857 -31.82293,-29.44599 -45.46124,-43.76498c-14.95585,-15.70301 -24.94691,-30.77893 -24.94691,-40.72667c0,-18.35832 14.75897,-33.10473 33.13309,-33.10473z"/>
  </g>
  <ellipse ry="44" rx="39.5" id="svg_8" cy="277" cx="365" stroke-width="1.5" stroke="#ff0000" fill="#ff0000"/>
  <ellipse ry="42" rx="39" id="svg_9" cy="280" cx="435.49999" stroke-width="1.5" stroke="#ff0000" fill="#ff0000"/>
  <ellipse ry="36" rx="24.5" id="svg_10" cy="323.00001" cx="401.99999" fill-opacity="null" stroke-width="1.5" stroke="#ff0000" fill="#ff0000"/>
  <ellipse ry="21" rx="40.5" id="svg_13" cy="325" cx="399" fill-opacity="null" stroke-opacity="null" stroke-width="1.5" stroke="#ff0000" fill="#ff0000"/>
 </g>
</svg>